<svg viewBox="0 0 800 350" xmlns="http://www.w3.org/2000/svg">
  <defs>
    <marker id="arrowhead" markerWidth="10" markerHeight="7" refX="10" refY="3.5" orient="auto">
      <polygon points="0 0, 10 3.5, 0 7" fill="#444"/>
    </marker>
    <marker id="arrowhead-dashed" markerWidth="10" markerHeight="7" refX="10" refY="3.5" orient="auto">
      <polygon points="0 0, 10 3.5, 0 7" fill="#E6522C"/>
    </marker>
  </defs>

  <text x="400" y="40" text-anchor="middle" fill="#777" font-size="20" font-weight="bold" font-family="Arial, sans-serif">Serverless Architecture</text>

  <rect x="30" y="140" width="100" height="70" fill="#6196D9" rx="4"/>
  <text x="80" y="180" text-anchor="middle" fill="white" font-size="16" font-weight="bold" font-family="Arial, sans-serif">User</text>

  <path d="M 130 175 L 200 175" stroke="#444" stroke-width="2.5" marker-end="url(#arrowhead)"/>
  <text x="165" y="165" text-anchor="middle" fill="#444" font-size="12" font-family="Arial, sans-serif" font-weight="bold">HTTPS</text>

  <rect x="200" y="140" width="150" height="70" fill="#F5A623" rx="4"/>
  <text x="275" y="172" text-anchor="middle" fill="white" font-size="16" font-weight="bold" font-family="Arial, sans-serif">Firebase</text>
  <text x="275" y="192" text-anchor="middle" fill="white" font-size="13" font-family="Arial, sans-serif">Hosting + CDN</text>

  <path d="M 350 175 L 420 120" stroke="#444" stroke-width="2.5" marker-end="url(#arrowhead)"/>
  <path d="M 350 175 L 420 210" stroke="#444" stroke-width="2.5" marker-end="url(#arrowhead)"/>

  <rect x="420" y="90" width="125" height="60" fill="#67AB6E" rx="4"/>
  <text x="482" y="120" text-anchor="middle" fill="white" font-size="14" font-weight="bold" font-family="Arial, sans-serif">Cloud</text>
  <text x="482" y="138" text-anchor="middle" fill="white" font-size="14" font-weight="bold" font-family="Arial, sans-serif">Functions</text>

  <rect x="420" y="180" width="125" height="60" fill="#D9534F" rx="4"/>
  <text x="482" y="215" text-anchor="middle" fill="white" font-size="14" font-weight="bold" font-family="Arial, sans-serif">Firestore</text>

  <path d="M 545 120 L 615 155" stroke="#444" stroke-width="2.5" marker-end="url(#arrowhead)"/>
  <path d="M 545 210 L 615 185" stroke="#444" stroke-width="2.5" marker-end="url(#arrowhead)"/>

  <rect x="615" y="135" width="125" height="70" fill="#4A90E2" rx="4"/>
  <text x="677" y="165" text-anchor="middle" fill="white" font-size="14" font-weight="bold" font-family="Arial, sans-serif">BigQuery</text>
  <text x="677" y="185" text-anchor="middle" fill="white" font-size="12" font-family="Arial, sans-serif">Analytics</text>

  <rect x="200" y="250" width="150" height="50" fill="#E6522C" rx="4"/>
  <text x="275" y="272" text-anchor="middle" fill="white" font-size="13" font-weight="bold" font-family="Arial, sans-serif">OpenTelemetry</text>
  <text x="275" y="288" text-anchor="middle" fill="white" font-size="11" font-family="Arial, sans-serif">SDK (Client)</text>

  <path d="M 350 275 L 677 275 L 677 215" stroke="#E6522C" stroke-width="2" stroke-dasharray="5,5" marker-end="url(#arrowhead-dashed)" fill="none"/>
  <text x="450" y="265" text-anchor="middle" fill="#E6522C" font-size="11" font-family="Arial, sans-serif" font-weight="bold">Traces/Metrics</text>

  <path d="M 275 210 L 275 250" stroke="#E6522C" stroke-width="1.5" stroke-dasharray="3,3"/>

  <text x="400" y="330" text-anchor="middle" fill="#777" font-size="14" font-family="Arial, sans-serif">Zero server management • Auto-scaling • Global CDN • Full observability</text>
</svg>