<svg viewBox="0 0 800 250" xmlns="http://www.w3.org/2000/svg">
  <!-- Title -->
  <text x="400" y="30" text-anchor="middle" fill="#333" font-size="16" font-weight="bold">Automated Deployment Pipeline</text>

  <!-- Git Push -->
  <rect x="50" y="100" width="100" height="60" fill="#F05032" rx="5"/>
  <text x="100" y="125" text-anchor="middle" fill="white" font-size="12" font-weight="bold">Git Push</text>
  <text x="100" y="143" text-anchor="middle" fill="white" font-size="10">main branch</text>

  <!-- Arrow -->
  <path d="M 150 130 L 210 130" stroke="#666" stroke-width="2" marker-end="url(#deployarrow)"/>
  <text x="180" y="120" text-anchor="middle" fill="#666" font-size="10">trigger</text>

  <!-- GitHub Actions -->
  <rect x="210" y="100" width="100" height="60" fill="#2088FF" rx="5"/>
  <text x="260" y="120" text-anchor="middle" fill="white" font-size="11">GitHub</text>
  <text x="260" y="135" text-anchor="middle" fill="white" font-size="11">Actions</text>
  <text x="260" y="150" text-anchor="middle" fill="white" font-size="9">Build Image</text>

  <!-- Arrow -->
  <path d="M 310 130 L 370 130" stroke="#666" stroke-width="2" marker-end="url(#deployarrow)"/>
  <text x="340" y="120" text-anchor="middle" fill="#666" font-size="10">push</text>

  <!-- Registry -->
  <rect x="370" y="100" width="100" height="60" fill="#00ADD8" rx="5"/>
  <text x="420" y="125" text-anchor="middle" fill="white" font-size="11">Container</text>
  <text x="420" y="143" text-anchor="middle" fill="white" font-size="11">Registry</text>

  <!-- Arrow -->
  <path d="M 470 130 L 530 130" stroke="#666" stroke-width="2" marker-end="url(#deployarrow)"/>
  <text x="500" y="120" text-anchor="middle" fill="#666" font-size="10">detect</text>

  <!-- FluxCD -->
  <rect x="530" y="100" width="100" height="60" fill="#5468FF" rx="5"/>
  <text x="580" y="125" text-anchor="middle" fill="white" font-size="12" font-weight="bold">FluxCD</text>
  <text x="580" y="143" text-anchor="middle" fill="white" font-size="10">Reconcile</text>

  <!-- Arrow -->
  <path d="M 630 130 L 690 130" stroke="#666" stroke-width="2" marker-end="url(#deployarrow)"/>
  <text x="660" y="120" text-anchor="middle" fill="#666" font-size="10">deploy</text>

  <!-- K3s -->
  <rect x="690" y="100" width="90" height="60" fill="#326CE5" rx="5"/>
  <text x="735" y="120" text-anchor="middle" fill="white" font-size="12" font-weight="bold">K3s</text>
  <text x="735" y="135" text-anchor="middle" fill="white" font-size="10">Cluster</text>
  <text x="735" y="150" text-anchor="middle" fill="white" font-size="9">Update Pods</text>

  <!-- Timeline -->
  <text x="400" y="210" text-anchor="middle" fill="#666" font-size="11">Total time: ~2-3 minutes from commit to production</text>
  <text x="400" y="230" text-anchor="middle" fill="#999" font-size="10">Zero manual intervention • Fully automated • GitOps driven</text>

  <!-- Arrow marker -->
  <defs>
    <marker id="deployarrow" markerWidth="10" markerHeight="7" refX="9" refY="3.5" orient="auto">
      <polygon points="0 0, 10 3.5, 0 7" fill="#666"/>
    </marker>
  </defs>
</svg>
