<svg viewBox="0 0 800 480" xmlns="http://www.w3.org/2000/svg" style="font-family: system-ui, -apple-system, sans-serif;">
  <defs>
    <!-- Gradients -->
    <linearGradient id="userGrad" x1="0%" y1="0%" x2="100%" y2="100%">
      <stop offset="0%" style="stop-color:#3b82f6"/>
      <stop offset="100%" style="stop-color:#1d4ed8"/>
    </linearGradient>
    <linearGradient id="cloudflareGrad" x1="0%" y1="0%" x2="100%" y2="100%">
      <stop offset="0%" style="stop-color:#f48120"/>
      <stop offset="100%" style="stop-color:#faad3f"/>
    </linearGradient>
    <linearGradient id="ingressGrad" x1="0%" y1="0%" x2="100%" y2="100%">
      <stop offset="0%" style="stop-color:#326ce5"/>
      <stop offset="100%" style="stop-color:#1d4ed8"/>
    </linearGradient>
    <linearGradient id="blogGrad" x1="0%" y1="0%" x2="100%" y2="100%">
      <stop offset="0%" style="stop-color:#10b981"/>
      <stop offset="100%" style="stop-color:#059669"/>
    </linearGradient>
    <linearGradient id="pgGrad" x1="0%" y1="0%" x2="100%" y2="100%">
      <stop offset="0%" style="stop-color:#3b82f6"/>
      <stop offset="100%" style="stop-color:#1d4ed8"/>
    </linearGradient>
    <linearGradient id="ollamaGrad" x1="0%" y1="0%" x2="100%" y2="100%">
      <stop offset="0%" style="stop-color:#8b5cf6"/>
      <stop offset="100%" style="stop-color:#6d28d9"/>
    </linearGradient>
    <linearGradient id="monitoringGrad" x1="0%" y1="0%" x2="100%" y2="100%">
      <stop offset="0%" style="stop-color:#f59e0b"/>
      <stop offset="100%" style="stop-color:#d97706"/>
    </linearGradient>
    <linearGradient id="fluxGrad" x1="0%" y1="0%" x2="100%" y2="100%">
      <stop offset="0%" style="stop-color:#5468ff"/>
      <stop offset="100%" style="stop-color:#316ce4"/>
    </linearGradient>
    <linearGradient id="githubGrad" x1="0%" y1="0%" x2="100%" y2="100%">
      <stop offset="0%" style="stop-color:#6e7681"/>
      <stop offset="100%" style="stop-color:#24292f"/>
    </linearGradient>
    <linearGradient id="bgGrad" x1="0%" y1="0%" x2="100%" y2="100%">
      <stop offset="0%" style="stop-color:#0f172a"/>
      <stop offset="100%" style="stop-color:#1e293b"/>
    </linearGradient>

    <!-- Shadow filter -->
    <filter id="shadow" x="-20%" y="-20%" width="140%" height="140%">
      <feDropShadow dx="0" dy="4" stdDeviation="6" flood-color="#000" flood-opacity="0.3"/>
    </filter>

    <!-- Arrow markers -->
    <marker id="arrow" markerWidth="10" markerHeight="7" refX="9" refY="3.5" orient="auto">
      <polygon points="0 0, 10 3.5, 0 7" fill="#94a3b8"/>
    </marker>
    <marker id="arrow-blue" markerWidth="10" markerHeight="7" refX="9" refY="3.5" orient="auto">
      <polygon points="0 0, 10 3.5, 0 7" fill="#60a5fa"/>
    </marker>
    <marker id="arrow-orange" markerWidth="10" markerHeight="7" refX="9" refY="3.5" orient="auto">
      <polygon points="0 0, 10 3.5, 0 7" fill="#fb923c"/>
    </marker>
  </defs>

  <!-- Background -->
  <rect width="800" height="480" rx="16" fill="url(#bgGrad)"/>

  <!-- Grid pattern -->
  <pattern id="grid" width="30" height="30" patternUnits="userSpaceOnUse">
    <path d="M 30 0 L 0 0 0 30" fill="none" stroke="#ffffff" stroke-width="0.3" opacity="0.05"/>
  </pattern>
  <rect width="800" height="480" fill="url(#grid)"/>

  <!-- Title -->
  <text x="400" y="35" text-anchor="middle" fill="#ffffff" font-size="20" font-weight="700">Self-Hosted Architecture</text>

  <!-- GitHub/GitLab -->
  <g filter="url(#shadow)">
    <rect x="645" y="410" width="100" height="40" rx="8" fill="url(#githubGrad)"/>
    <text x="695" y="435" text-anchor="middle" fill="white" font-size="11" font-weight="600">GitHub/GitLab</text>
  </g>
  <path d="M 695 410 L 695 371" stroke="#60a5fa" stroke-width="1.5" stroke-dasharray="4" marker-end="url(#arrow-blue)" fill="none"/>

  <!-- User -->
  <g filter="url(#shadow)">
    <rect x="20" y="200" width="80" height="60" rx="8" fill="url(#userGrad)"/>
    <text x="60" y="235" text-anchor="middle" fill="white" font-size="13" font-weight="600">User</text>
  </g>

  <path d="M 100 230 L 155 230" stroke="#94a3b8" stroke-width="2" marker-end="url(#arrow)"/>
  <text x="125" y="220" text-anchor="middle" fill="#94a3b8" font-size="10">HTTPS</text>

  <!-- Cloudflare -->
  <g filter="url(#shadow)">
    <rect x="160" y="200" width="100" height="60" rx="8" fill="url(#cloudflareGrad)"/>
    <text x="210" y="225" text-anchor="middle" fill="white" font-size="12" font-weight="600">Cloudflare</text>
    <text x="210" y="243" text-anchor="middle" fill="white" font-size="10">CDN + DNS</text>
  </g>

  <!-- K3s Cluster Box -->
  <rect x="320" y="70" width="460" height="330" fill="#1e293b" stroke="#60a5fa" stroke-width="2" rx="8" stroke-dasharray="5,5"/>
  <text x="550" y="95" text-anchor="middle" fill="#60a5fa" font-size="14" font-weight="700">K3s Cluster</text>

  <path d="M 260 230 L 345 175" stroke="#fb923c" stroke-width="2" marker-end="url(#arrow-orange)" fill="none"/>

  <!-- Ingress -->
  <g filter="url(#shadow)">
    <rect x="340" y="145" width="100" height="50" rx="8" fill="url(#ingressGrad)"/>
    <text x="390" y="175" text-anchor="middle" fill="white" font-size="12" font-weight="600">Ingress</text>
  </g>

  <path d="M 390 195 L 390 216" stroke="#94a3b8" stroke-width="2" marker-end="url(#arrow)"/>

  <!-- Blog Site -->
  <g filter="url(#shadow)">
    <rect x="340" y="220" width="100" height="60" rx="8" fill="url(#blogGrad)"/>
    <text x="390" y="245" text-anchor="middle" fill="white" font-size="12" font-weight="600">Blog Site</text>
    <text x="390" y="263" text-anchor="middle" fill="#d1fae5" font-size="10">Bun.js</text>
  </g>

  <path d="M 440 240 L 645 240" stroke="#fb923c" stroke-width="1.5" stroke-dasharray="4,4" marker-end="url(#arrow-orange)" fill="none"/>

  <path d="M 390 280 L 390 311" stroke="#94a3b8" stroke-width="2" marker-end="url(#arrow)"/>

  <!-- Postgres -->
  <g filter="url(#shadow)">
    <rect x="340" y="315" width="100" height="50" rx="8" fill="url(#pgGrad)"/>
    <text x="390" y="345" text-anchor="middle" fill="white" font-size="12" font-weight="600">Postgres</text>
  </g>

  <path d="M 440 250 L 485 250" stroke="#94a3b8" stroke-width="1" marker-end="url(#arrow)" fill="none"/>

  <!-- Ollama -->
  <g filter="url(#shadow)">
    <rect x="490" y="220" width="100" height="60" rx="8" fill="url(#ollamaGrad)"/>
    <text x="540" y="245" text-anchor="middle" fill="white" font-size="12" font-weight="600">Ollama</text>
    <text x="540" y="263" text-anchor="middle" fill="#e9d5ff" font-size="10">Llama 3</text>
  </g>

  <!-- Prometheus/Grafana -->
  <g filter="url(#shadow)">
    <rect x="640" y="210" width="110" height="60" rx="8" fill="url(#monitoringGrad)"/>
    <text x="695" y="235" text-anchor="middle" fill="white" font-size="11" font-weight="600">Prometheus</text>
    <text x="695" y="253" text-anchor="middle" fill="white" font-size="11">Grafana</text>
  </g>

  <!-- FluxCD -->
  <g filter="url(#shadow)">
    <rect x="640" y="315" width="110" height="50" rx="8" fill="url(#fluxGrad)"/>
    <text x="695" y="345" text-anchor="middle" fill="white" font-size="12" font-weight="600">FluxCD</text>
  </g>

  <path d="M 640 340 L 600 340 L 600 170 L 445 170" stroke="#60a5fa" stroke-width="1.5" stroke-dasharray="4" marker-end="url(#arrow-blue)" fill="none"/>

  <!-- Footer -->
  <text x="400" y="470" text-anchor="middle" fill="#94a3b8" font-size="11">Homelab • GitOps Workflow • Persistent Storage</text>
</svg>
