<svg viewBox="0 0 800 480" xmlns="http://www.w3.org/2000/svg">
  <defs>
    <marker id="arrow" markerWidth="10" markerHeight="7" refX="9" refY="3.5" orient="auto">
      <polygon points="0 0, 10 3.5, 0 7" fill="#666"/>
    </marker>
    <marker id="arrow-blue" markerWidth="10" markerHeight="7" refX="9" refY="3.5" orient="auto">
      <polygon points="0 0, 10 3.5, 0 7" fill="#5468FF"/>
    </marker>
    <marker id="arrow-orange" markerWidth="10" markerHeight="7" refX="9" refY="3.5" orient="auto">
      <polygon points="0 0, 10 3.5, 0 7" fill="#E6522C"/>
    </marker>
  </defs>

  <text x="400" y="30" text-anchor="middle" fill="#333" font-size="20" font-weight="bold">Self-Hosted Architecture</text>

  <rect x="645" y="410" width="100" height="40" fill="#F05032" rx="5"/>
  <text x="695" y="435" text-anchor="middle" fill="white" font-size="12" font-weight="bold">GitHub/GitLab</text>
  
  <path d="M 695 410 L 695 371" stroke="#5468FF" stroke-width="1.5" stroke-dasharray="4" marker-end="url(#arrow-blue)" fill="none"/>

  <rect x="20" y="200" width="80" height="60" fill="#4A90E2" rx="5"/>
  <text x="60" y="235" text-anchor="middle" fill="white" font-size="14" font-weight="bold">User</text>

  <path d="M 100 230 L 155 230" stroke="#666" stroke-width="2" marker-end="url(#arrow)"/>
  <text x="125" y="220" text-anchor="middle" fill="#666" font-size="11">HTTPS</text>

  <rect x="160" y="200" width="100" height="60" fill="#F6821F" rx="5"/>
  <text x="210" y="225" text-anchor="middle" fill="white" font-size="12" font-weight="bold">Cloudflare</text>
  <text x="210" y="243" text-anchor="middle" fill="white" font-size="11">CDN + DNS</text>

  <rect x="320" y="70" width="460" height="330" fill="#F9FAFB" stroke="#326CE5" stroke-width="2" rx="8" stroke-dasharray="5,5"/>
  <text x="550" y="95" text-anchor="middle" fill="#326CE5" font-size="14" font-weight="bold">K3s Cluster</text>

  <path d="M 260 230 L 345 175" stroke="#F6821F" stroke-width="2" marker-end="url(#arrow)" fill="none"/>

  <rect x="340" y="145" width="100" height="50" fill="#326CE5" rx="5"/>
  <text x="390" y="175" text-anchor="middle" fill="white" font-size="12" font-weight="bold">Ingress</text>

  <path d="M 390 195 L 390 216" stroke="#666" stroke-width="2" marker-end="url(#arrow)"/>

  <rect x="340" y="220" width="100" height="60" fill="#000000" rx="5"/>
  <text x="390" y="245" text-anchor="middle" fill="white" font-size="12" font-weight="bold">Blog Site</text>
  <text x="390" y="263" text-anchor="middle" fill="#FFD700" font-size="10">Bun.js</text>

  <path d="M 440 240 L 645 240" stroke="#E6522C" stroke-width="1.5" stroke-dasharray="4,4" marker-end="url(#arrow-orange)" fill="none"/>

  <path d="M 390 280 L 390 311" stroke="#666" stroke-width="2" marker-end="url(#arrow)"/>

  <rect x="340" y="315" width="100" height="50" fill="#336791" rx="5"/>
  <text x="390" y="345" text-anchor="middle" fill="white" font-size="12" font-weight="bold">Postgres</text>

  <path d="M 290 340 L 335 340" stroke="#666" stroke-width="1.5" marker-end="url(#arrow)" fill="none"/>
  <rect x="230" y="325" width="60" height="30" fill="#95A5A6" rx="3"/>
  <text x="260" y="344" text-anchor="middle" fill="white" font-size="10">Storage</text>

  <path d="M 440 250 L 485 250" stroke="#666" stroke-width="1" marker-end="url(#arrow)" fill="none"/>

  <rect x="490" y="220" width="100" height="60" fill="#8B5CF6" rx="5"/>
  <text x="540" y="245" text-anchor="middle" fill="white" font-size="12" font-weight="bold">Ollama</text>
  <text x="540" y="263" text-anchor="middle" fill="white" font-size="10">Llama 3</text>

  <rect x="640" y="210" width="110" height="60" fill="#E6522C" rx="5"/>
  <text x="695" y="235" text-anchor="middle" fill="white" font-size="11" font-weight="bold">Prometheus</text>
  <text x="695" y="253" text-anchor="middle" fill="white" font-size="11">Grafana</text>

  <rect x="640" y="315" width="110" height="50" fill="#5468FF" rx="5"/>
  <text x="695" y="345" text-anchor="middle" fill="white" font-size="12" font-weight="bold">FluxCD</text>

  <path d="M 640 340 L 600 340 L 600 170 L 445 170" stroke="#5468FF" stroke-width="1.5" stroke-dasharray="4" marker-end="url(#arrow-blue)" fill="none"/>

  <text x="400" y="470" text-anchor="middle" fill="#999" font-size="11">Homelab • GitOps Workflow • Persistent Storage</text>
</svg>